<?xml version="1.0" encoding="UTF-8"?>
<svg width="35px" height="38px" viewBox="0 0 35 38" version="1.1" xmlns="http://www.w3.org/2000/svg" xmlns:xlink="http://www.w3.org/1999/xlink">
    <!-- Generator: Sketch 50.2 (55047) - http://www.bohemiancoding.com/sketch -->
    <title>图标</title>
    <desc>Created with Sketch.</desc>
    <defs></defs>
    <g id="有人么1.1" stroke="none" stroke-width="1" fill="none" fill-rule="evenodd">
        <g id="1.1-活动详情" transform="translate(-47.000000, -1047.000000)">
            <g id="列表-copy-3" transform="translate(0.000000, 1012.000000)">
                <rect id="Rectangle" fill="#FFFFFF" x="0" y="0" width="750" height="108"></rect>
                <g id="Group" transform="translate(30.000000, 30.000000)">
                    <g id="icon_time" transform="translate(10.000000, 0.000000)">
                        <g id="Page-1-Copy-14" transform="translate(7.000000, 5.000000)">
                            <path d="M13.3804267,35.7296966 C2.05661143,34.1542569 11.3166517,32.044844 3.89272672,24.1347878 C-3.53119825,16.2247316 14.4171496,0.312589076 12.5643074,6.57668888 C10.7114651,12.8407887 32.3957848,12.7040548 32.3957848,21.4025548 C32.3957848,30.1010548 24.7042421,37.3051363 13.3804267,35.7296966 Z" id="Fill-1" fill="#FEE57F"></path>
                            <path d="M32.19185,20.84482 C32.19185,12.8975053 25.6196706,6.44482 17.5001833,6.44482 C9.38069609,6.44482 2.80851667,12.8975053 2.80851667,20.84482 C2.80851667,28.7921347 9.38069609,35.24482 17.5001833,35.24482 C25.6196706,35.24482 32.19185,28.7921347 32.19185,20.84482 Z M34.89185,20.84482 C34.89185,30.2945053 27.0998628,37.94482 17.5001833,37.94482 C7.90050391,37.94482 0.108516667,30.2945053 0.108516667,20.84482 C0.108516667,11.3951347 7.90050391,3.74482 17.5001833,3.74482 C27.0998628,3.74482 34.89185,11.3951347 34.89185,20.84482 Z" id="Stroke-3" fill="#464646" fill-rule="nonzero"></path>
                            <path d="M13.927475,18.81982 C15.0668917,16.88302 17.5895583,16.21882 19.562225,17.33752 C21.5358083,18.45622 22.2113917,20.93302 21.071975,22.86982 C19.933475,24.80662 17.4108083,25.47082 15.437225,24.35212 C13.4645583,23.23432 12.7880583,20.75662 13.927475,18.81982" id="Fill-5" fill="#FFFFFF"></path>
                            <path d="M15.091054,19.5043519 C14.3355805,20.7885187 14.7836328,22.4300963 16.1029434,23.1776759 C17.4372325,23.9340003 19.1445404,23.4847482 19.908396,22.1852881 C20.6640686,20.9007829 20.2164068,19.2601323 18.8962726,18.5118314 C17.5629009,17.7556759 15.8554868,18.2049559 15.091054,19.5043519 Z M12.763896,18.1352881 C14.278574,15.5606124 17.616696,14.6822365 20.2279434,16.1630759 C22.8549412,17.6521554 23.7588699,20.9649934 22.2357947,23.5539426 C20.7221323,26.1289634 17.3839038,27.0073675 14.7716781,25.5266613 C12.1452042,24.0383853 11.2406976,20.7244469 12.763896,18.1352881 Z" id="Stroke-7" fill="#464646" fill-rule="nonzero"></path>
                            <path d="M17.5001833,15.73003 L17.5001833,9.43003" id="Stroke-9" stroke="#464646" stroke-width="2.7" stroke-linecap="round"></path>
                            <path d="M18.8501833,4.00582 C18.8501833,4.75140441 18.2457677,5.35582 17.5001833,5.35582 C16.7545989,5.35582 16.1501833,4.75140441 16.1501833,4.00582 L16.1501833,1.44982 C16.1501833,0.704235588 16.7545989,0.09982 17.5001833,0.09982 C18.2457677,0.09982 18.8501833,0.704235588 18.8501833,1.44982 L18.8501833,4.00582 Z" id="Stroke-11" fill="#464646" fill-rule="nonzero"></path>
                            <path d="M27.247075,4.5068266 L26.4375052,3.92314095 C25.8327197,3.4871012 25.6959243,2.64334566 26.1319641,2.0385602 C26.5680038,1.43377474 27.4117593,1.2969793 28.0165448,1.73301905 L31.8637948,4.50681905 C32.4685803,4.9428588 32.6053757,5.78661434 32.1693359,6.3913998 C31.7332962,6.99618526 30.8895407,7.1329807 30.2847552,6.69694095 L29.4375337,6.08610909 L28.6909632,7.08422278 C28.2443842,7.68126828 27.3983594,7.80324549 26.8013139,7.35666651 C26.2042684,6.91008752 26.0822912,6.06406272 26.5288702,5.46701722 L27.247075,4.5068266 Z" id="Combined-Shape" fill="#464646" fill-rule="nonzero"></path>
                            <path d="M12.4081942,31.1579789 C12.7544608,31.3227682 12.9015771,31.7370609 12.7367878,32.0833275 C12.5719984,32.4295941 12.1577057,32.5767105 11.8114391,32.4119211 C8.69313522,30.9279105 6.28311735,28.2728426 5.14735271,25.0497167 C5.01990376,24.6880362 5.20978601,24.2915183 5.57146659,24.1640694 C5.93314717,24.0366204 6.329665,24.2265027 6.45711396,24.5881833 C7.46935465,27.4607671 9.62156444,29.831813 12.4081942,31.1579789 Z" id="Stroke-17" fill="#464646" fill-rule="nonzero"></path>
                            <path d="M14.8612011,32.007134 C15.2353,32.0914317 15.4702303,32.4630356 15.3859326,32.8371345 C15.3016349,33.2112334 14.9300311,33.4461636 14.5559322,33.361866 C14.2064656,33.2831188 13.8564162,33.1886292 13.5090797,33.0797722 C13.1431512,32.9650883 12.9394772,32.5754749 13.0541611,32.2095464 C13.1688451,31.8436179 13.5584584,31.6399439 13.9243869,31.7546278 C14.2358856,31.8522531 14.5492551,31.9368416 14.8612011,32.007134 Z" id="Stroke-19" fill="#464646" fill-rule="nonzero"></path>
                        </g>
                    </g>
                </g>
            </g>
        </g>
    </g>
</svg>