<?xml version="1.0" encoding="UTF-8"?>
<svg width="30px" height="30px" viewBox="0 0 30 30" version="1.1" xmlns="http://www.w3.org/2000/svg" xmlns:xlink="http://www.w3.org/1999/xlink">
    <!-- Generator: Sketch 50.2 (55047) - http://www.bohemiancoding.com/sketch -->
    <title>icon-订单</title>
    <desc>Created with Sketch.</desc>
    <defs></defs>
    <g id="有人么1.1" stroke="none" stroke-width="1" fill="none" fill-rule="evenodd">
        <g id="4.2.1活动订单详情_组队中" transform="translate(-30.000000, -683.000000)">
            <g id="卡片5_订单信息" transform="translate(0.000000, 653.000000)">
                <rect id="Rectangle-23" fill="#FFFFFF" x="0" y="0" width="750" height="394"></rect>
                <g id="Group-8" transform="translate(30.000000, 24.000000)">
                    <g id="icon-订单" transform="translate(0.000000, 6.000000)">
                        <g id="Group">
                            <path d="M15.910606,27.8756585 C21.4334535,27.8756585 23.1693009,19.8845356 17.6464534,16.5276667 C12.1236059,13.1707979 14.7308729,9.67593793 8.99876208,8.38596634 C3.26665131,7.09599476 -0.166276476,11.8404162 0.456643309,17.8921176 C1.07956309,23.9438191 10.3877585,27.8756585 15.910606,27.8756585 Z" id="Oval" fill="#FEE57F"></path>
                            <path d="M26.0538433,0.296296296 C26.708403,0.296296296 27.2390285,0.826921778 27.2390285,1.48148148 C27.2390285,2.13604118 26.708403,2.66666667 26.0538433,2.66666667 L6.66666667,2.66666667 C5.68482711,2.66666667 4.88888889,3.46260489 4.88888889,4.44444444 L4.88888889,24.3108039 C4.88888889,25.7017433 6.01646804,26.8293225 7.40740741,26.8293225 L21.4814815,26.8293225 C24.5088201,26.8293225 26.962963,24.3751796 26.962963,21.347841 L26.962963,6.64727343 C26.962963,5.99271372 27.4935884,5.46208824 28.1481481,5.46208824 C28.8027079,5.46208824 29.3333333,5.99271372 29.3333333,6.64727343 L29.3333333,21.347841 C29.3333333,25.684299 25.8179395,29.1996928 21.4814815,29.1996928 L7.40740741,29.1996928 C4.70734863,29.1996928 2.51851852,27.0108627 2.51851852,24.3108039 L2.51851852,4.44444444 C2.51851852,2.15348548 4.3757077,0.296296296 6.66666667,0.296296296 L26.0538433,0.296296296 Z" id="Path-4" fill="#464646" fill-rule="nonzero"></path>
                            <rect id="Rectangle-15" fill="#464646" x="8.14814815" y="7.40740741" width="14.8148148" height="1.85185185" rx="0.925925926"></rect>
                            <rect id="Rectangle-15-Copy" fill="#464646" x="8.14814815" y="14.8148148" width="8.88888889" height="1.85185185" rx="0.925925926"></rect>
                            <rect id="Rectangle-15-Copy-2" fill="#464646" x="18.5185185" y="14.8148148" width="1.85185185" height="1.85185185" rx="0.925925926"></rect>
                        </g>
                    </g>
                </g>
            </g>
        </g>
    </g>
</svg>