<?xml version="1.0" encoding="UTF-8"?>
<svg width="33px" height="31px" viewBox="0 0 33 31" version="1.1" xmlns="http://www.w3.org/2000/svg" xmlns:xlink="http://www.w3.org/1999/xlink">
    <!-- Generator: Sketch 50.2 (55047) - http://www.bohemiancoding.com/sketch -->
    <title>icon-导航</title>
    <desc>Created with Sketch.</desc>
    <defs></defs>
    <g id="有人么1.1" stroke="none" stroke-width="1" fill="none" fill-rule="evenodd">
        <g id="4.2.1活动订单详情_组队中" transform="translate(-480.000000, -572.000000)">
            <g id="小明" transform="translate(0.000000, 140.000000)" fill="#FFFFFF">
                <rect id="Rectangle-25" x="0" y="176.709324" width="750" height="317.290009"></rect>
            </g>
            <g id="订单商家信息" transform="translate(28.000000, 254.000000)">
                <g id="地址导航" transform="translate(452.000000, 311.000000)">
                    <g id="icon-导航" transform="translate(2.000000, 8.000000)">
                        <path d="M23.3739224,25.0393412 C27.5035567,25.0393412 28.801513,19.0640874 24.6718787,16.5540342 C20.5422444,14.0439811 22.4917929,11.4307469 18.2056848,10.4661882 C13.9195768,9.50162943 11.3526516,13.0492062 11.8184314,17.5742839 C12.2842112,22.0993616 19.2442881,25.0393412 23.3739224,25.0393412 Z" id="Oval-Copy" fill="#FEE57F" transform="translate(19.479785, 17.673136) rotate(-75.000000) translate(-19.479785, -17.673136) "></path>
                        <g id="Group" stroke-width="1" stroke="#464646" stroke-linecap="round">
                            <g id="发布2">
                                <polygon id="Stroke-81" stroke-width="2.5" stroke-linejoin="round" points="22.7931228 26.6982378 29.6017841 0.236979021 0.0263409549 13.0593566"></polygon>
                                <path d="M16.6743185,12.5833007 L29.6023362,0.891272727" id="Stroke-83" stroke-width="2.016"></path>
                                <path d="M13.828451,15.1573427 L14.625805,14.4365035" id="Stroke-85" stroke-width="2.016"></path>
                                <polyline id="Stroke-87" stroke-width="2.5" stroke-linejoin="round" points="9.33243161 18.7303217 11.3908825 28.5451469 16.6742396 23.4271049"></polyline>
                            </g>
                        </g>
                    </g>
                </g>
            </g>
        </g>
    </g>
</svg>