<?xml version="1.0" encoding="UTF-8"?>
<svg width="36px" height="37px" viewBox="0 0 36 37" version="1.1" xmlns="http://www.w3.org/2000/svg" xmlns:xlink="http://www.w3.org/1999/xlink">
    <!-- Generator: Sketch 50.2 (55047) - http://www.bohemiancoding.com/sketch -->
    <title>图标</title>
    <desc>Created with Sketch.</desc>
    <defs></defs>
    <g id="有人么1.1" stroke="none" stroke-width="1" fill="none" fill-rule="evenodd">
        <g id="1.1-活动详情" transform="translate(-45.000000, -936.000000)">
            <g id="列表-copy-2" transform="translate(0.000000, 904.000000)">
                <rect id="Rectangle" fill="#FFFFFF" x="0" y="0" width="750" height="108"></rect>
                <g id="Group" transform="translate(30.000000, 27.000000)">
                    <g id="icon_price" transform="translate(9.000000, 0.000000)">
                        <g id="Page-1-Copy-15" transform="translate(6.000000, 5.000000)">
                            <path d="M25.5127674,33.9068066 C19.198823,34.5633396 11.5610705,41.4577705 3.14637705,24.5858453 C1.27206001,20.8277361 2.99598923,11.0674708 4.76124779,8.9602902 C5.86154834,7.64686676 8.97721902,5.26001217 13.2126459,5.26001217 C19.714855,5.26001217 28.1161535,15.5506506 30.3610256,20.6786823 C32.6058976,25.806714 31.8267117,33.2502737 25.5127674,33.9068066 Z" id="Fill-1" fill="#FEE57F"></path>
                            <path d="M33.1779667,18.8351213 C33.1779667,10.3348212 26.3788803,3.45074625 18.0001889,3.45074625 C9.62149751,3.45074625 2.82241111,10.3348212 2.82241111,18.8351213 C2.82241111,27.3354213 9.62149751,34.2194962 18.0001889,34.2194962 C26.3788803,34.2194962 33.1779667,27.3354213 33.1779667,18.8351213 Z M35.8779667,18.8351213 C35.8779667,28.8191337 27.8776086,36.9194963 18.0001889,36.9194963 C8.12276916,36.9194963 0.122411111,28.8191337 0.122411111,18.8351213 C0.122411111,8.85110878 8.12276916,0.75074625 18.0001889,0.75074625 C27.8776086,0.75074625 35.8779667,8.85110878 35.8779667,18.8351213 Z" id="Stroke-3" fill="#464646" fill-rule="nonzero"></path>
                            <path d="M12.7523919,29.8356808 C13.0966468,30.0046325 13.238758,30.4206687 13.0698063,30.7649235 C12.9008546,31.1091784 12.4848185,31.2512896 12.1405636,31.0823379 C8.93330187,29.5082937 6.45677902,26.6946981 5.29070542,23.2821495 C5.16670914,22.9192707 5.36036165,22.5245805 5.72324042,22.4005842 C6.08611919,22.276588 6.4808094,22.4702405 6.60480569,22.8331192 C7.65182849,25.8972622 9.87578263,28.4239126 12.7523919,29.8356808 Z" id="Stroke-17" fill="#464646" fill-rule="nonzero"></path>
                            <path d="M15.2811412,30.7384518 C15.6546677,30.8252507 15.8871062,31.1984182 15.8003073,31.5719447 C15.7135083,31.9454712 15.3403408,32.1779097 14.9668143,32.0911107 C14.6068459,32.0074623 14.2462932,31.9070962 13.8885514,31.7914744 C13.5236572,31.6735409 13.323456,31.2821317 13.4413895,30.9172375 C13.559323,30.5523433 13.9507322,30.3521421 14.3156264,30.4700756 C14.6366843,30.5738413 14.9596542,30.6637455 15.2811412,30.7384518 Z" id="Stroke-19" fill="#464646" fill-rule="nonzero"></path>
                        </g>
                        <g id="Group" transform="translate(17.000000, 14.000000)" fill="#FFFFFF" stroke="#464646">
                            <path d="M6.16070978,10.0596873 L7.83929022,10.0596873 L7.73214196,9.9168229 L6.26785804,9.9168229 L6.16070978,10.0596873 Z M7.08929022,9.05968725 L7,8.94063363 L6.91070978,9.05968725 L7,9.17874088 L7.08929022,9.05968725 Z M6.96402387,13.6310942 L6.96402387,13.7739586 L7.10688822,13.7739586 L7.10688822,13.6310942 L6.96402387,13.6310942 Z M1.83531919,11.8453907 C1.02373253,11.6178093 0.428593047,10.8725333 0.428593047,9.98825508 C0.428593047,8.92313648 1.29204227,8.05968725 2.35716087,8.05968725 L3.83929022,8.05968725 L-0.114261213,2.78828535 C-0.753332372,1.93619047 -0.580642527,0.727361549 0.271452352,0.0882903895 C1.12354723,-0.55078077 2.33237615,-0.378090925 2.97144731,0.474003955 L7,5.84540754 L11.0285527,0.474003955 C11.6676239,-0.378090925 12.8764528,-0.55078077 13.7285476,0.0882903895 C14.5806425,0.727361549 14.7533324,1.93619047 14.1142612,2.78828535 L10.1607098,8.05968725 L11.6428391,8.05968725 C12.7079577,8.05968725 13.571407,8.92313648 13.571407,9.98825508 C13.571407,10.8725333 12.9762675,11.6178093 12.1646808,11.8453907 C12.9762675,12.0729721 13.571407,12.8182481 13.571407,13.7025264 C13.571407,14.767645 12.7079577,15.6310942 11.6428391,15.6310942 L8.96402387,15.6310942 L8.96402387,18.0400688 C8.96402387,19.1051874 8.10057464,19.9686366 7.03545604,19.9686366 C5.97033744,19.9686366 5.10688822,19.1051874 5.10688822,18.0400688 L5.10688822,15.6310942 L2.35716087,15.6310942 C1.29204227,15.6310942 0.428593047,14.767645 0.428593047,13.7025264 C0.428593047,12.8182481 1.02373253,12.0729721 1.83531919,11.8453907 Z" id="Combined-Shape" stroke-width="2" fill-rule="nonzero"></path>
                        </g>
                    </g>
                </g>
            </g>
        </g>
    </g>
</svg>