<?xml version="1.0" encoding="UTF-8"?>
<svg width="59px" height="52px" viewBox="0 0 59 52" version="1.1" xmlns="http://www.w3.org/2000/svg" xmlns:xlink="http://www.w3.org/1999/xlink">
    <!-- Generator: Sketch 50.2 (55047) - http://www.bohemiancoding.com/sketch -->
    <title>icon_success   成功 Success  icon_Success</title>
    <desc>Created with Sketch.</desc>
    <defs>
        <polygon id="path-1" points="0 0.0002 54.2607 0.0002 54.2607 52 0 52"></polygon>
    </defs>
    <g id="有人么1.1" stroke="none" stroke-width="1" fill="none" fill-rule="evenodd">
        <g id="Artboard" transform="translate(-2039.000000, -104.000000)">
            <g id="Group" transform="translate(2039.000000, 66.000000)">
                <g id="icon_success---成功-Success--icon_Success" transform="translate(0.000000, 38.000000)">
                    <circle id="Oval-Copy-2" fill="#FEE57F" cx="18.5" cy="27.5" r="18.5"></circle>
                    <g id="Page-1" transform="translate(4.000000, 0.000000)">
                        <mask id="mask-2" fill="white">
                            <use xlink:href="#path-1"></use>
                        </mask>
                        <g id="Clip-2"></g>
                        <path d="M40.6957,48.5332 C35.0827,48.5332 30.5217,43.8702 30.5217,38.1322 C30.5217,32.3962 35.0827,27.7332 40.6957,27.7332 C46.3077,27.7332 50.8687,32.3962 50.8687,38.1322 C50.8697,43.8702 46.3077,48.5332 40.6957,48.5332 Z M50.2867,28.3292 C47.7207,25.7082 44.3207,24.2662 40.6957,24.2662 C37.0707,24.2662 33.6637,25.7082 31.1047,28.3292 C28.5387,30.9522 27.1307,34.4292 27.1307,38.1322 C27.1307,41.8392 28.5387,45.3212 31.1047,47.9372 C33.6707,50.5602 37.0707,52.0002 40.6957,52.0002 C44.3207,52.0002 47.7287,50.5602 50.2867,47.9372 C52.8497,45.3162 54.2607,41.8392 54.2607,38.1322 C54.2607,34.4292 52.8497,30.9452 50.2867,28.3292 Z M33.5007,38.0332 C32.9247,38.6372 32.9457,39.5932 33.5487,40.1702 L37.9877,44.4172 C38.6317,45.0322 39.6527,45.0102 40.2677,44.3662 L48.0187,36.2642 C48.6087,35.6472 48.5867,34.6702 47.9697,34.0792 C47.3537,33.4892 46.3757,33.5112 45.7847,34.1282 L39.0087,41.2122 L35.6367,37.9862 C35.0337,37.4092 34.0777,37.4302 33.5007,38.0332 Z M10.2117,39.8672 L18.6147,39.8672 C19.5717,39.8672 20.3477,39.0922 20.3477,38.1342 L20.3477,38.1322 C20.3477,37.1752 19.5717,36.3982 18.6147,36.3982 L10.2117,36.3982 C9.2547,36.3982 8.4787,37.1752 8.4787,38.1322 L8.4787,38.1342 C8.4787,39.0922 9.2547,39.8672 10.2117,39.8672 Z M18.6147,26.0002 L10.2117,26.0002 C9.2547,26.0002 8.4777,26.7752 8.4777,27.7332 C8.4777,28.6902 9.2547,29.4662 10.2117,29.4662 L18.6147,29.4662 C19.5717,29.4662 20.3477,28.6902 20.3477,27.7332 C20.3477,26.7752 19.5717,26.0002 18.6147,26.0002 Z M3.3907,9.3392 C3.3907,8.0122 4.4467,6.9322 5.7447,6.9322 L10.1737,6.9322 L10.1737,10.4362 C10.1737,11.3732 10.9327,12.1322 11.8697,12.1322 C12.8057,12.1322 13.5647,11.3732 13.5647,10.4362 L13.5647,6.9322 L33.9127,6.9322 L33.9127,10.4362 C33.9127,11.3732 34.6727,12.1322 35.6087,12.1322 C36.5457,12.1322 37.3037,11.3732 37.3037,10.4362 L37.3037,6.9322 L41.7337,6.9322 C43.0317,6.9322 44.0877,8.0122 44.0877,9.3392 L44.0877,17.3322 L3.3907,17.3322 L3.3907,9.3392 Z M23.8487,45.0672 L5.7457,45.0672 C4.4467,45.0672 3.3917,43.9892 3.3917,42.6602 L3.3917,20.8002 L44.8387,20.8002 C46.2967,20.8002 47.4787,19.6182 47.4787,18.1612 L47.4787,9.3392 C47.4787,6.0982 44.9017,3.4662 41.7337,3.4662 L37.3037,3.4662 L37.3037,1.6962 C37.3037,0.7592 36.5457,0.0002 35.6087,0.0002 C34.6727,0.0002 33.9127,0.7592 33.9127,1.6962 L33.9127,3.4662 L13.5647,3.4662 L13.5647,1.6962 C13.5647,0.7592 12.8057,0.0002 11.8697,0.0002 C10.9327,0.0002 10.1737,0.7592 10.1737,1.6962 L10.1737,3.4662 L5.7447,3.4662 C2.5747,3.4662 -0.0003,6.0982 -0.0003,9.3392 L-0.0003,42.6602 C-0.0003,45.9012 2.5747,48.5332 5.7447,48.5332 L23.8487,48.5332 C24.7877,48.5332 25.5447,47.7592 25.5447,46.8012 C25.5447,45.8422 24.7877,45.0672 23.8487,45.0672 Z" id="Fill-1" fill="#464646" mask="url(#mask-2)"></path>
                    </g>
                </g>
            </g>
        </g>
    </g>
</svg>