<?xml version="1.0" encoding="UTF-8"?>
<svg width="40px" height="36px" viewBox="0 0 40 36" version="1.1" xmlns="http://www.w3.org/2000/svg" xmlns:xlink="http://www.w3.org/1999/xlink">
    <!-- Generator: Sketch 50.2 (55047) - http://www.bohemiancoding.com/sketch -->
    <title>icon-组队</title>
    <desc>Created with Sketch.</desc>
    <defs></defs>
    <g id="有人么1.1" stroke="none" stroke-width="1" fill="none" fill-rule="evenodd">
        <g id="1.1-活动详情" transform="translate(-46.000000, -1162.000000)">
            <g id="列表-copy-3" transform="translate(0.000000, 1120.000000)">
                <rect id="Rectangle" fill="#FFFFFF" x="0" y="0" width="750" height="148"></rect>
                <g id="Group" transform="translate(30.000000, 35.000000)"></g>
                <g id="icon-组队" transform="translate(46.000000, 42.000000)">
                    <path d="M22.7336026,31.4765472 C23.1101593,37.3380887 34.3710385,36.2513949 32.5039889,27.9224503 C32.3134326,27.0723749 29.6400216,24.6665001 29.513599,23.0899282 C29.3907468,21.5578817 31.8253431,20.8571019 30.94414,19.8603991 C48.0257816,23.282618 38.2533945,5.25737526 30.9576772,3.60788839 C28.9268276,3.14873415 27.0774342,4.36563933 24.0987458,7.82365472 C21.6324219,10.6868564 16.6667628,8.96109766 14.6275514,10.8180608 C12.0285924,13.1847456 12.2850801,16.1321547 15.0685617,18.2501333 C21.9521703,23.4879389 22.2812666,24.4354107 22.7336026,31.4765472 Z" id="Oval-Copy" fill="#FEE57F" fill-rule="evenodd" transform="translate(26.627378, 19.339165) rotate(-169.000000) translate(-26.627378, -19.339165) "></path>
                    <path d="M8.35918634,29.3530084 C8.64606537,29.4944563 8.76449143,29.8427656 8.62369834,30.130979 C8.48290525,30.4191923 8.13620849,30.5381692 7.84932945,30.3967213 C5.17661131,29.0789168 3.11284226,26.7233484 2.14111426,23.866331 C2.03778403,23.5625255 2.19916112,23.2320872 2.50156009,23.1282763 C2.80395907,23.0244655 3.13286758,23.1865932 3.23619782,23.4903987 C4.10871682,26.0557276 5.96201193,28.1710629 8.35918634,29.3530084 Z" id="Stroke-17" fill="#464646" fill-rule="nonzero" transform="translate(5.396443, 26.776601) rotate(51.000000) translate(-5.396443, -26.776601) "></path>
                    <path d="M8.04709645,20.4176701 C8.3583685,20.490339 8.55206729,20.8027583 8.47973481,21.1154782 C8.40740233,21.428198 8.09642942,21.6227977 7.78515736,21.5501288 C7.48518368,21.4800976 7.18472312,21.3960701 6.88660493,21.2992704 C6.58252644,21.2005354 6.41569211,20.872844 6.51397002,20.5673512 C6.61224793,20.2618584 6.93842224,20.0942481 7.24250073,20.1929831 C7.51004902,20.2798567 7.77919055,20.3551254 8.04709645,20.4176701 Z" id="Stroke-19" fill="#464646" fill-rule="nonzero" transform="translate(7.490326, 20.865000) rotate(115.000000) translate(-7.490326, -20.865000) "></path>
                    <g id="组队" stroke-width="1" fill-rule="evenodd" fill="#464646">
                        <path d="M28.0738591,14.3378405 C29.6539723,14.3378405 31.1140572,13.4909394 31.9041138,12.1161564 C32.6941704,10.7413735 32.6941704,9.0475711 31.9041138,7.67278818 C31.1140572,6.29800526 29.6539723,5.45110407 28.0738591,5.4511041 C25.6312157,5.4511041 23.651062,7.44046781 23.651062,9.89447231 C23.651062,12.3484768 25.6312157,14.3378405 28.0738591,14.3378405 Z M28.0738591,17.0422643 C24.1445186,17.0422643 20.9591588,13.8420888 20.9591588,9.89447231 C20.9591588,5.94685582 24.1445186,2.74668036 28.0738591,2.74668036 C32.0031996,2.74668036 35.1885594,5.94685582 35.1885594,9.89447231 C35.1885594,13.8420888 32.0031996,17.0422643 28.0738591,17.0422643 Z" id="Shape" fill-rule="nonzero"></path>
                        <path d="M22.5635331,18.8758635 C24.1545339,17.6819377 26.0880191,17.0385571 28.0738591,17.0422643 C33.1696412,17.043757 37.3002176,21.1935454 37.3017035,26.3130288 L37.3017035,28.4387059 C37.3017035,29.1855119 36.6991004,29.7909178 35.9557518,29.7909178 L25.573081,29.7909178 L25.573081,32.4953415 L35.9557518,32.4953415 C38.1857975,32.4953415 39.9936067,30.6791239 39.9936067,28.4387059 L39.9936067,26.3130288 C39.992375,21.7848738 37.449533,17.6444922 33.4217152,15.6123485 C29.3938974,13.5802049 24.5697153,14.0037224 20.953775,16.7069157 L22.5635331,18.8758635 Z" id="Shape" fill-rule="nonzero"></path>
                        <path d="M14.024816,13.9402902 C16.0442975,13.9848916 17.9296676,12.9280089 18.9524419,11.1780088 C19.9752161,9.42800876 19.9752161,7.25896182 18.9524419,5.50896175 C17.9296676,3.75896168 16.0442975,2.70207894 14.024816,2.74668036 C10.9958067,2.81357779 8.57504304,5.29965241 8.57504304,8.34348529 C8.57504304,11.3873182 10.9958067,13.8733928 14.024816,13.9402902 Z M14.024816,16.644714 C11.0372549,16.6988911 8.25326553,15.1286418 6.74370077,12.5379576 C5.23413601,9.94727346 5.23413601,6.73969712 6.74370077,4.14901296 C8.25326553,1.55832879 11.0372549,-0.0119205033 14.024816,0.0422566209 C18.5301023,0.123956527 22.1398132,3.81650685 22.1398132,8.34348529 C22.1398132,12.8704637 18.5301023,16.5630141 14.024816,16.644714 Z M14.024816,16.644714 C7.76582111,16.644714 2.69190326,21.7422314 2.69190326,28.0303379 L2.69190326,31.1160854 C2.69190326,31.8628914 3.29450633,32.4682973 4.03785489,32.4682973 L24.0117771,32.4682973 C24.7551256,32.4682973 25.3577287,31.8628914 25.3577287,31.1160854 L25.3577287,28.0303379 C25.3577287,25.0106827 24.1637288,22.1147047 22.0383954,19.979486 C19.913062,17.8442673 17.0304913,16.644714 14.024816,16.644714 Z M14.024816,13.9402902 C21.770508,13.9402902 28.049632,20.2486194 28.049632,28.0303379 L28.049632,31.1160854 C28.049632,33.3565034 26.2418228,35.172721 24.0117771,35.172721 L4.03785489,35.172721 C1.80780921,35.172721 2.98861298e-16,33.3565034 0,31.1160854 L0,28.0303379 C-7.47153245e-16,20.2486194 6.279124,13.9402902 14.024816,13.9402902 Z" id="Shape" fill-rule="nonzero"></path>
                    </g>
                </g>
            </g>
        </g>
    </g>
</svg>