<?xml version="1.0" encoding="UTF-8"?>
<svg width="29px" height="35px" viewBox="0 0 29 35" version="1.1" xmlns="http://www.w3.org/2000/svg" xmlns:xlink="http://www.w3.org/1999/xlink">
    <!-- Generator: Sketch 50.2 (55047) - http://www.bohemiancoding.com/sketch -->
    <title>icon-定位</title>
    <desc>Created with Sketch.</desc>
    <defs></defs>
    <g id="有人么1.1" stroke="none" stroke-width="1" fill="none" fill-rule="evenodd">
        <g id="1.1-活动详情" transform="translate(-50.000000, -685.000000)">
            <g id="活动地址" transform="translate(0.000000, 648.000000)">
                <rect id="Rectangle" fill="#FFFFFF" x="0" y="0" width="750" height="108"></rect>
                <g id="Group" transform="translate(30.000000, 33.000000)">
                    <g id="icon-定位" transform="translate(20.000000, 3.000000)">
                        <g id="Page-1">
                            <g id="Group-9" transform="translate(0.000000, 0.639840)">
                                <path d="M4.19352743,5.93596982 C1.50376777,11.3007596 -0.278698416,16.3841297 3.71884717,20.8602224 L11.0151929,28.9557353 C13.7915566,30.5610787 13.7645843,30.523058 13.9123857,30.5610787 L19.0277491,27.3691725 C23.9826683,21.8188919 23.9826683,13.4337057 19.0277491,7.88342511 C14.6230951,2.95381794 10.1015289,2.96990798 4.19352743,5.93596982 Z" id="Shape" fill="#FEE57F" fill-rule="nonzero"></path>
                                <path d="M14.741425,19.2 C11.4096472,19.2 8.69975833,16.5088 8.69975833,13.2 C8.69975833,9.8912 11.4096472,7.2 14.741425,7.2 C18.0732028,7.2 20.7830917,9.8912 20.7830917,13.2 C20.7830917,16.5088 18.0732028,19.2 14.741425,19.2" id="Fill-3" fill="#FFFFFF"></path>
                                <path d="M14.709525,2.8 C8.26910833,2.8 3.02896944,8.0128 3.02896944,14.4192 C3.02896944,22.2128 12.0149417,29.2 14.709525,29.2 C17.4041083,29.2 26.3900806,22.2128 26.3900806,14.4192 C26.3900806,8.0128 21.1499417,2.8 14.709525,2.8 M14.709525,31.6 C10.2781639,31.6 0.612302778,22.9752 0.612302778,14.4192 C0.612302778,6.6888 6.93671944,0.4 14.709525,0.4 C22.4823306,0.4 28.8067472,6.6888 28.8067472,14.4192 C28.8067472,22.9752 19.1408861,31.6 14.709525,31.6" id="Fill-5" fill="#464646"></path>
                                <path d="M14.741425,9.6 C12.7428417,9.6 11.116425,11.2152 11.116425,13.2 C11.116425,15.1848 12.7428417,16.8 14.741425,16.8 C16.7400083,16.8 18.366425,15.1848 18.366425,13.2 C18.366425,11.2152 16.7400083,9.6 14.741425,9.6 M14.741425,19.2 C11.4096472,19.2 8.69975833,16.5088 8.69975833,13.2 C8.69975833,9.8912 11.4096472,7.2 14.741425,7.2 C18.0732028,7.2 20.7830917,9.8912 20.7830917,13.2 C20.7830917,16.5088 18.0732028,19.2 14.741425,19.2" id="Fill-7" fill="#464646"></path>
                            </g>
                            <g id="Group-20" transform="translate(4.027778, 16.639840)" fill="#464646">
                                <path d="M7.18458889,9.6 C7.00817222,9.6 6.83014444,9.5424 6.68192222,9.4248 C6.56995,9.3352 6.45958889,9.2456 6.35083889,9.1544 C6.01089444,8.8688 5.96900556,8.364 6.25658889,8.0272 C6.54417222,7.6888 7.05247778,7.6472 7.39161667,7.9336 C7.48908889,8.0152 7.58736667,8.096 7.68806111,8.1752 C8.03606111,8.4512 8.09164444,8.9544 7.81372778,9.3 C7.65503333,9.4976 7.42061667,9.6 7.18458889,9.6" id="Fill-14"></path>
                                <path d="M5.254075,7.76872 C5.03174167,7.76872 4.81021389,7.67832 4.65151944,7.49992 C1.95210278,4.48232 0.828352778,1.19112 0.781630556,1.05272 C0.641463889,0.63432 0.869436111,0.18152 1.29074167,0.04152 C1.71124167,-0.09848 2.16799167,0.12712 2.30976944,0.54632 C2.32024167,0.57752 3.38518611,3.67432 5.855825,6.43752 C6.15146389,6.76792 6.12165833,7.27352 5.78896389,7.56712 C5.63510278,7.70232 5.44418611,7.76872 5.254075,7.76872" id="Fill-16"></path>
                                <path d="M10.6641056,19.2 C9.1408,19.2 7.67710556,18.8704 6.31410556,18.2208 C5.71235556,17.9344 5.45860556,17.2176 5.74699444,16.62 C6.03618889,16.0224 6.75635556,15.7704 7.35891111,16.0568 C9.43805,17.048 11.9215778,17.0432 13.9999111,16.0424 C14.6008556,15.7544 15.3234389,16.0024 15.6142444,16.5984 C15.90505,17.1944 15.6545222,17.9128 15.0543833,18.2016 C13.6793,18.864 12.2019111,19.2 10.6641056,19.2" id="Fill-18"></path>
                            </g>
                        </g>
                    </g>
                </g>
            </g>
        </g>
    </g>
</svg>