<?xml version="1.0" encoding="UTF-8"?>
<svg width="55px" height="46px" viewBox="0 0 55 46" version="1.1" xmlns="http://www.w3.org/2000/svg" xmlns:xlink="http://www.w3.org/1999/xlink">
    <!-- Generator: Sketch 50.2 (55047) - http://www.bohemiancoding.com/sketch -->
    <title>Group 10</title>
    <desc>Created with Sketch.</desc>
    <defs>
        <polygon id="path-1" points="0.0415 0.7096 21.835 0.7096 21.835 4.6546 0.0415 4.6546"></polygon>
        <polygon id="path-3" points="0.0415 0.3537 21.835 0.3537 21.835 4.2987 0.0415 4.2987"></polygon>
        <polygon id="path-5" points="0.0415 0.5163 21.835 0.5163 21.835 4.4613 0.0415 4.4613"></polygon>
        <polygon id="path-7" points="0.0415 0.1608 21.835 0.1608 21.835 4.1058 0.0415 4.1058"></polygon>
    </defs>
    <g id="有人么1.1" stroke="none" stroke-width="1" fill="none" fill-rule="evenodd">
        <g id="Artboard" transform="translate(-1744.000000, -107.000000)">
            <g id="全部" transform="translate(1744.000000, 107.000000)">
                <g id="Group-10">
                    <circle id="Oval" fill="#FEE57F" cx="36.5" cy="27.5" r="18.5"></circle>
                    <g id="Page-1">
                        <path d="M5.593,3.9451 C4.685,3.9451 3.946,4.6841 3.946,5.5931 L3.946,15.3781 C3.946,16.2871 4.685,17.0261 5.593,17.0261 L16.378,17.0261 C17.286,17.0261 18.026,16.2871 18.026,15.3781 L18.026,5.5931 C18.026,4.6841 17.286,3.9451 16.378,3.9451 L5.593,3.9451 Z M16.378,20.9711 L5.593,20.9711 C2.509,20.9711 0,18.4621 0,15.3781 L0,5.5931 C0,2.5091 2.509,0.0001 5.593,0.0001 L16.378,0.0001 C19.462,0.0001 21.971,2.5091 21.971,5.5931 L21.971,15.3781 C21.971,18.4621 19.462,20.9711 16.378,20.9711 Z" id="Fill-1" fill="#464646"></path>
                        <g id="Group-5" transform="translate(26.000000, 3.498000)">
                            <mask id="mask-2" fill="white">
                                <use xlink:href="#path-1"></use>
                            </mask>
                            <g id="Clip-4"></g>
                            <path d="M19.8625,4.6546 L2.0135,4.6546 C0.9255,4.6546 0.0415,3.7716 0.0415,2.6826 C0.0415,1.5926 0.9255,0.7096 2.0135,0.7096 L19.8625,0.7096 C20.9525,0.7096 21.8355,1.5926 21.8355,2.6826 C21.8355,3.7716 20.9525,4.6546 19.8625,4.6546" id="Fill-3" fill="#464646" mask="url(#mask-2)"></path>
                        </g>
                        <g id="Group-8" transform="translate(26.000000, 14.498000)">
                            <mask id="mask-4" fill="white">
                                <use xlink:href="#path-3"></use>
                            </mask>
                            <g id="Clip-7"></g>
                            <path d="M19.8625,4.2987 L2.0135,4.2987 C0.9255,4.2987 0.0415,3.4157 0.0415,2.3267 C0.0415,1.2367 0.9255,0.3537 2.0135,0.3537 L19.8625,0.3537 C20.9525,0.3537 21.8355,1.2367 21.8355,2.3267 C21.8355,3.4157 20.9525,4.2987 19.8625,4.2987" id="Fill-6" fill="#464646" mask="url(#mask-4)"></path>
                        </g>
                        <g id="Group-11" transform="translate(26.000000, 27.498000)">
                            <mask id="mask-6" fill="white">
                                <use xlink:href="#path-5"></use>
                            </mask>
                            <g id="Clip-10"></g>
                            <path d="M19.8625,4.4613 L2.0135,4.4613 C0.9255,4.4613 0.0415,3.5783 0.0415,2.4883 C0.0415,1.3993 0.9255,0.5163 2.0135,0.5163 L19.8625,0.5163 C20.9525,0.5163 21.8355,1.3993 21.8355,2.4883 C21.8355,3.5783 20.9525,4.4613 19.8625,4.4613" id="Fill-9" fill="#464646" mask="url(#mask-6)"></path>
                        </g>
                        <g id="Group-14" transform="translate(26.000000, 38.498000)">
                            <mask id="mask-8" fill="white">
                                <use xlink:href="#path-7"></use>
                            </mask>
                            <g id="Clip-13"></g>
                            <path d="M19.8625,4.1058 L2.0135,4.1058 C0.9255,4.1058 0.0415,3.2218 0.0415,2.1328 C0.0415,1.0428 0.9255,0.1608 2.0135,0.1608 L19.8625,0.1608 C20.9525,0.1608 21.8355,1.0428 21.8355,2.1328 C21.8355,3.2218 20.9525,4.1058 19.8625,4.1058" id="Fill-12" fill="#464646" mask="url(#mask-8)"></path>
                        </g>
                        <path d="M5.593,28.472 C4.685,28.472 3.946,29.212 3.946,30.12 L3.946,39.905 C3.946,40.813 4.685,41.553 5.593,41.553 L16.378,41.553 C17.286,41.553 18.026,40.813 18.026,39.905 L18.026,30.12 C18.026,29.212 17.286,28.472 16.378,28.472 L5.593,28.472 Z M16.378,45.498 L5.593,45.498 C2.509,45.498 0,42.989 0,39.905 L0,30.12 C0,27.036 2.509,24.527 5.593,24.527 L16.378,24.527 C19.462,24.527 21.971,27.036 21.971,30.12 L21.971,39.905 C21.971,42.989 19.462,45.498 16.378,45.498 Z" id="Fill-15" fill="#464646"></path>
                    </g>
                </g>
            </g>
        </g>
    </g>
</svg>