<?xml version="1.0" encoding="UTF-8"?>
<svg width="32px" height="33px" viewBox="0 0 32 33" version="1.1" xmlns="http://www.w3.org/2000/svg" xmlns:xlink="http://www.w3.org/1999/xlink">
    <!-- Generator: Sketch 50.2 (55047) - http://www.bohemiancoding.com/sketch -->
    <title>Shape</title>
    <desc>Created with Sketch.</desc>
    <defs></defs>
    <g id="有人么1.1" stroke="none" stroke-width="1" fill="none" fill-rule="evenodd">
        <g id="1.1-活动详情" transform="translate(-153.000000, -3720.000000)">
            <g id="活动详情&amp;评论" transform="translate(0.000000, 1545.000000)"></g>
            <g id="立即报名" transform="translate(0.000000, 3701.000000)">
                <rect id="Bar" fill="#FFFFFF" x="0" y="0" width="750" height="108"></rect>
                <g id="Group-2" transform="translate(46.000000, 19.000000)" fill="#464646" fill-rule="nonzero">
                    <g id="客服" transform="translate(103.000000, 0.000000)">
                        <g id="客服-(4)" transform="translate(4.000000, 0.000000)">
                            <path d="M24.128,27.0295261 L21.784,28.5455261 C21.6373333,28.3935261 21.4906667,28.3935261 21.1973333,28.3935261 L20.3186667,28.3935261 C19.5853333,28.3935261 19,29.0001928 19,29.9081928 L19,30.8175261 C19,31.5761928 19.5866667,32.3335261 20.3186667,32.3335261 L21.1986667,32.3335261 C21.784,32.3335261 22.224,32.0308595 22.3693333,31.5761928 L25.4466667,29.6055261 C25.74,29.4548595 25.74,28.6961928 25.4466667,27.9388595 C25.1533333,27.3321928 24.5666667,26.8775261 24.128,27.0295261 Z M25.9373333,9.59866666 C26.5746667,11.0146667 27.3706667,11.4866667 28.324,11.172 C29.28,10.8573333 29.4386667,10.3853333 29.28,9.59866666 L29.28,9.44 C27.688,3.93333334 22.4373333,0 16.5493333,0 L15.436,0 C7.956,0 1.90933334,6.136 1.90933334,13.8466667 L1.90933334,14.6333333 C0.796,15.2626667 0,16.364 0,17.78 L0,21.872 C0,23.76 1.592,25.3333333 3.50133334,25.3333333 C5.41066669,25.3333333 7.00133334,23.76 7.00133334,21.872 L7.00133334,17.78 C7.00133334,16.364 6.20533334,15.1053333 4.93333334,14.6333333 L4.93333334,14.1613333 C4.93333334,8.18266669 9.86666669,3.148 15.9133333,3.148 C20.368,2.98933334 24.188,5.82133334 25.9373333,9.59866666 Z M30.0306667,14.54 L30.0306667,14.064 L29.8786667,14.064 C29.8786667,13.904 30.0306667,13.7466667 30.0306667,13.5866667 C30.0306667,12.7933333 29.424,12 28.6666667,12 C27.9093333,12 27.3026667,12.6346667 27.3026667,13.5866667 C27.3026667,13.7466667 27.3026667,13.9053333 27.4546667,14.064 L27.3026667,14.064 L27.3026667,14.54 C26.2426667,15.1746667 25.3333333,16.444 25.3333333,17.7133333 L25.3333333,21.8413333 C25.3333333,23.7453333 26.848,25.3333333 28.6666667,25.3333333 C30.4853333,25.3333333 32,23.7466667 32,21.84 L32,17.7146667 C31.848,16.2853333 31.0906667,15.016 30.0306667,14.54 Z" id="Shape"></path>
                        </g>
                    </g>
                </g>
            </g>
        </g>
    </g>
</svg>