<?xml version="1.0" encoding="UTF-8"?>
<svg width="59px" height="52px" viewBox="0 0 59 52" version="1.1" xmlns="http://www.w3.org/2000/svg" xmlns:xlink="http://www.w3.org/1999/xlink">
    <!-- Generator: Sketch 50.2 (55047) - http://www.bohemiancoding.com/sketch -->
    <title>icon_cancel</title>
    <desc>Created with Sketch.</desc>
    <defs>
        <polygon id="path-1" points="0.1314 0.2662 27.2604 0.2662 27.2604 28 0.1314 28"></polygon>
        <polygon id="path-3" points="0.0002 0 47.4782 0 47.4782 48.5329 0.0002 48.5329"></polygon>
    </defs>
    <g id="有人么1.1" stroke="none" stroke-width="1" fill="none" fill-rule="evenodd">
        <g id="Artboard" transform="translate(-2195.000000, -104.000000)">
            <g id="Group" transform="translate(2195.000000, 63.000000)">
                <g id="icon_cancel" transform="translate(0.000000, 41.000000)">
                    <circle id="Oval-Copy-3" fill="#FEE57F" cx="18.5" cy="27.5" r="18.5"></circle>
                    <g id="Page-1" transform="translate(4.000000, 0.000000)">
                        <g id="Group-3" transform="translate(27.000000, 24.000000)">
                            <mask id="mask-2" fill="white">
                                <use xlink:href="#path-1"></use>
                            </mask>
                            <g id="Clip-2"></g>
                            <path d="M13.6954,24.5332 C8.0834,24.5332 3.5214,19.8702 3.5214,14.1322 C3.5214,8.3962 8.0834,3.7332 13.6954,3.7332 C19.3074,3.7332 23.8694,8.3962 23.8694,14.1322 C23.8694,19.8702 19.3074,24.5332 13.6954,24.5332 M23.2874,4.3292 C20.7204,1.7082 17.3214,0.2662 13.6964,0.2662 C10.0704,0.2662 6.6634,1.7082 4.1044,4.3292 C1.5394,6.9522 0.1314,10.4292 0.1314,14.1322 C0.1314,17.8392 1.5394,21.3202 4.1044,23.9372 C6.6704,26.5602 10.0704,28.0002 13.6964,28.0002 C17.3214,28.0002 20.7284,26.5602 23.2874,23.9372 C25.8494,21.3162 27.2604,17.8392 27.2604,14.1322 C27.2604,10.4292 25.8494,6.9452 23.2874,4.3292" id="Fill-1" fill="#464646" mask="url(#mask-2)"></path>
                        </g>
                        <g id="Group-6">
                            <mask id="mask-4" fill="white">
                                <use xlink:href="#path-3"></use>
                            </mask>
                            <g id="Clip-5"></g>
                            <path d="M3.3912,9.3389 C3.3912,8.0119 4.4462,6.9329 5.7452,6.9329 L10.1742,6.9329 L10.1742,10.4369 C10.1742,11.3729 10.9332,12.1319 11.8692,12.1319 C12.8062,12.1319 13.5652,11.3729 13.5652,10.4369 L13.5652,6.9329 L33.9132,6.9329 L33.9132,10.4369 C33.9132,11.3729 34.6722,12.1319 35.6082,12.1319 C36.5452,12.1319 37.3042,11.3729 37.3042,10.4369 L37.3042,6.9329 L41.7332,6.9329 C43.0312,6.9329 44.0872,8.0119 44.0872,9.3389 L44.0872,17.3319 L3.3912,17.3319 L3.3912,9.3389 Z M23.8492,45.0679 L5.7452,45.0679 C4.4472,45.0679 3.3912,43.9889 3.3912,42.6599 L3.3912,20.7999 L44.8392,20.7999 C46.2972,20.7999 47.4782,19.6189 47.4782,18.1609 L47.4782,9.3389 C47.4782,6.0989 44.9012,3.4659 41.7332,3.4659 L37.3042,3.4659 L37.3042,1.6959 C37.3042,0.7589 36.5452,-0.0001 35.6082,-0.0001 C34.6722,-0.0001 33.9132,0.7589 33.9132,1.6959 L33.9132,3.4659 L13.5652,3.4659 L13.5652,1.6959 C13.5652,0.7589 12.8062,-0.0001 11.8692,-0.0001 C10.9332,-0.0001 10.1742,0.7589 10.1742,1.6959 L10.1742,3.4659 L5.7452,3.4659 C2.5742,3.4659 0.0002,6.0989 0.0002,9.3389 L0.0002,42.6599 C0.0002,45.9019 2.5742,48.5329 5.7452,48.5329 L23.8492,48.5329 C24.7872,48.5329 25.5442,47.7589 25.5442,46.8009 C25.5442,45.8419 24.7872,45.0679 23.8492,45.0679 Z" id="Fill-4" fill="#464646" mask="url(#mask-4)"></path>
                        </g>
                        <path d="M45.4913,40.4492 L43.1213,38.0782 L45.5983,35.6002 C46.2613,34.9382 46.2613,33.8642 45.5983,33.2022 C44.9363,32.5402 43.8633,32.5402 43.2003,33.2022 L40.7423,35.6612 L38.4183,33.3372 C37.7413,32.6592 36.6423,32.6592 35.9663,33.3372 C35.2883,34.0132 35.2883,35.1122 35.9663,35.7892 L38.3363,38.1602 L35.8583,40.6372 C35.1963,41.3002 35.1963,42.3742 35.8583,43.0362 C36.5203,43.6982 37.5953,43.6982 38.2573,43.0362 L40.7153,40.5772 L43.0393,42.9012 C43.7163,43.5792 44.8143,43.5792 45.4913,42.9012 C46.1693,42.2242 46.1693,41.1262 45.4913,40.4492" id="Fill-7" fill="#464646"></path>
                        <path d="M10.2115,29.4658 L18.6145,29.4658 C19.5715,29.4658 20.3475,28.6908 20.3475,27.7338 C20.3475,26.7758 19.5715,25.9998 18.6145,25.9998 L10.2115,25.9998 C9.2535,25.9998 8.4785,26.7758 8.4785,27.7338 C8.4785,28.6908 9.2535,29.4658 10.2115,29.4658" id="Fill-9" fill="#464646"></path>
                        <path d="M10.2115,39.8672 L18.6145,39.8672 C19.5715,39.8672 20.3475,39.0922 20.3475,38.1342 L20.3475,38.1322 C20.3475,37.1752 19.5715,36.3982 18.6145,36.3982 L10.2115,36.3982 C9.2545,36.3982 8.4785,37.1752 8.4785,38.1322 L8.4785,38.1342 C8.4785,39.0922 9.2545,39.8672 10.2115,39.8672" id="Fill-11" fill="#464646"></path>
                    </g>
                </g>
            </g>
        </g>
    </g>
</svg>