<?xml version="1.0" encoding="UTF-8"?>
<svg width="30px" height="30px" viewBox="0 0 30 30" version="1.1" xmlns="http://www.w3.org/2000/svg" xmlns:xlink="http://www.w3.org/1999/xlink">
    <!-- Generator: Sketch 50.2 (55047) - http://www.bohemiancoding.com/sketch -->
    <title>Group</title>
    <desc>Created with Sketch.</desc>
    <defs></defs>
    <g id="有人么1.1" stroke="none" stroke-width="1" fill="none" fill-rule="evenodd">
        <g id="4.2.1活动订单详情_组队中" transform="translate(-106.000000, -571.000000)">
            <g id="小明" transform="translate(0.000000, 140.000000)" fill="#FFFFFF">
                <rect id="Rectangle-25" x="0" y="176.709324" width="750" height="317.290009"></rect>
            </g>
            <g id="订单商家信息" transform="translate(28.000000, 254.000000)">
                <g id="联系团场" transform="translate(78.000000, 311.000000)">
                    <g id="Group" transform="translate(0.000000, 6.000000)">
                        <path d="M16.1237067,29.6912429 C21.8589714,29.6912429 23.6615821,21.3927692 17.9263174,17.90679 C12.1910527,14.4208107 14.8985992,10.7915331 8.94602263,9.45194725 C2.99344605,8.11236137 -0.571517414,13.0392605 0.0753608234,19.3237197 C0.722239061,25.6081789 10.388442,29.6912429 16.1237067,29.6912429 Z" id="Oval-Copy" fill="#FFDD53"></path>
                        <path d="M14.4464213,15.8413978 C15.230144,16.6251205 16.1686525,17.1873513 17.1712112,17.4714111 C17.276738,17.5011314 17.4364881,17.4442846 17.5727867,17.2881967 C18.8590624,15.814557 20.7263245,14.9863768 22.7415865,14.9863768 C26.6213818,14.9863768 29.7115385,18.1001406 29.7115385,22.0205114 C29.7115385,23.9339987 28.8848761,25.7937008 27.4755645,27.1243775 C27.0122184,27.5618705 26.2819441,27.5409123 25.8444512,27.0775662 C25.4069582,26.6142202 25.4279164,25.8839459 25.8912625,25.4464529 C26.8454915,24.5454667 27.4038462,23.2893634 27.4038462,22.0205114 C27.4038462,19.370729 25.3429306,17.2940691 22.7415865,17.2940691 C21.3852292,17.2940691 20.1542317,17.8400491 19.3111925,18.8058887 C18.6168992,19.6009869 17.557969,19.9778055 16.543872,19.6921961 C15.1534883,19.298254 13.8720215,18.5305678 12.8146364,17.4731827 C11.6921873,16.3507335 10.9146613,14.9028744 10.5641635,13.32521 C10.3806129,12.4977985 10.6561468,11.6310397 11.2966328,11.0711557 C12.6128894,9.9238047 13.1977879,8.22389437 12.8108847,6.49014103 C12.3771839,4.54709256 10.6508802,3.05616309 8.65600345,2.89991696 C5.89696227,2.68369116 3.60576923,4.80852815 3.60576923,7.54623255 C3.60576923,12.1392358 5.93450944,17.0084529 10.0252893,20.8552747 C13.9220415,24.5048989 18.6922224,26.6820499 22.7415865,26.6820499 C23.3788382,26.6820499 23.8954327,27.1986444 23.8954327,27.835896 C23.8954327,28.4731476 23.3788382,28.9897422 22.7415865,28.9897422 C18.0585269,28.9897422 12.7456698,26.5649092 8.44609564,22.5380064 C3.91073471,18.2731201 1.29807692,12.8102531 1.29807692,7.54623255 C1.29807692,3.46449822 4.73426309,0.277802332 8.83625141,0.599274773 C11.8395411,0.834503534 14.4081483,3.05289196 15.063165,5.98747077 C15.6371763,8.55967532 14.7577831,11.1154901 12.8142122,12.8096591 C13.0737785,13.9808529 13.6397011,15.0346776 14.4464213,15.8413978 Z" id="Page-1" fill="#464646" fill-rule="nonzero"></path>
                    </g>
                </g>
            </g>
        </g>
    </g>
</svg>