<?xml version="1.0" encoding="UTF-8"?>
<svg width="262px" height="297px" viewBox="0 0 262 297" version="1.1" xmlns="http://www.w3.org/2000/svg" xmlns:xlink="http://www.w3.org/1999/xlink">
    <!-- Generator: Sketch 50.2 (55047) - http://www.bohemiancoding.com/sketch -->
    <title>Group 4</title>
    <desc>Created with Sketch.</desc>
    <defs>
        <linearGradient x1="79.5255721%" y1="88.1593064%" x2="25.139897%" y2="39.9036935%" id="linearGradient-1">
            <stop stop-color="#FFEE7D" offset="0%"></stop>
            <stop stop-color="#FFD947" offset="100%"></stop>
        </linearGradient>
    </defs>
    <g id="有人么1.1" stroke="none" stroke-width="1" fill="none" fill-rule="evenodd">
        <g id="3.0消息_通知_无消息" transform="translate(-244.000000, -596.000000)">
            <g id="Group-5" transform="translate(244.000000, 596.000000)">
                <g id="Group-4" transform="translate(1.000000, 1.000000)">
                    <g id="Group-3">
                        <circle id="Oval-3" stroke="#FCB84C" stroke-width="2" cx="145" cy="36" r="7"></circle>
                        <circle id="Oval-4" stroke="#FCB84C" stroke-width="2" cx="8.5" cy="231.5" r="8.5"></circle>
                        <circle id="Oval-2" stroke="#FCB84C" stroke-width="2" cx="73" cy="11" r="11"></circle>
                        <path d="M73.5,63.5 L73.5,60 L73.5,59 L75.5,59 L75.5,60 L75.5,63.5 L79.9166667,63.5 L81,63.5 L81,65.5 L79.9166667,65.5 L75.5,65.5 L75.5,70 L75.5,71 L73.5,71 L73.5,70 L73.5,65.5 L69.0833333,65.5 L68,65.5 L68,63.5 L69.0833333,63.5 L73.5,63.5 Z" id="Combined-Shape" stroke="#FCB84C" stroke-width="2" stroke-linecap="square"></path>
                        <path d="M207.5,40.5 L207.5,37 L207.5,36 L209.5,36 L209.5,37 L209.5,40.5 L214,40.5 L215,40.5 L215,42.5 L214,42.5 L209.5,42.5 L209.5,47 L209.5,48 L207.5,48 L207.5,47 L207.5,42.5 L204,42.5 L203,42.5 L203,40.5 L204,40.5 L207.5,40.5 Z" id="Combined-Shape-Copy" stroke="#FCB84C" stroke-width="2" stroke-linecap="square"></path>
                        <path d="M41.4918604,118.274021 L42.4631113,116.819823 C42.4848755,116.787245 42.4848755,116.787245 42.5066544,116.754677 L41.2598631,115.920704 L40.1992029,116.981364 L41.4918604,118.274021 Z M207.393512,267.500014 C207.257524,267.609707 207.121276,267.719092 206.98477,267.828167 L207.921132,267.500014 L207.393512,267.500014 Z M65.6064318,267.5 L65.0788507,267.5 L66.0152128,267.828153 C65.8786761,267.719053 65.7424233,267.609669 65.6064552,267.5 Z" id="Combined-Shape" stroke="#FCB84C" stroke-width="3" fill-opacity="0.5" fill="url(#linearGradient-1)"></path>
                        <path d="M97.5,294.5 L96.5,294.5 L96.5,292.5 L97.5,292.5 L240.503496,292.5 L241.503496,292.5 L241.503496,294.5 L240.503496,294.5 L97.5,294.5 Z M233.5,271.5 L232.5,271.5 L232.5,269.5 L233.5,269.5 L243.5,269.5 L244.5,269.5 L244.5,271.5 L243.5,271.5 L233.5,271.5 Z M160.5,283.5 L159.5,283.5 L159.5,281.5 L160.5,281.5 L199.512818,281.5 L200.512818,281.5 L200.512818,283.5 L199.512818,283.5 L160.5,283.5 Z M139.5,283.5 L138.5,283.5 L138.5,281.5 L139.5,281.5 L152.538405,281.5 L153.538405,281.5 L153.538405,283.5 L152.538405,283.5 L139.5,283.5 Z M36.5,269.5 L35.5,269.5 L35.5,267.5 L36.5,267.5 L219.502732,267.5 L220.502732,267.5 L220.502732,269.5 L219.502732,269.5 L36.5,269.5 Z M64.5,283.5 L63.5,283.5 L63.5,281.5 L64.5,281.5 L129.507692,281.5 L130.507692,281.5 L130.507692,283.5 L129.507692,283.5 L64.5,283.5 Z M27.5,294.5 L26.5,294.5 L26.5,292.5 L27.5,292.5 L69.5119031,292.5 L70.5119031,292.5 L70.5119031,294.5 L69.5119031,294.5 L27.5,294.5 Z" id="Combined-Shape" stroke="#FCB84C" stroke-width="2" stroke-linecap="square"></path>
                        <path d="M44.5,159.5 L44.5,156 L44.5,155 L46.5,155 L46.5,156 L46.5,159.5 L51,159.5 L52,159.5 L52,161.5 L51,161.5 L46.5,161.5 L46.5,166 L46.5,167 L44.5,167 L44.5,166 L44.5,161.5 L41,161.5 L40,161.5 L40,159.5 L41,159.5 L44.5,159.5 Z" id="Combined-Shape-Copy-2" stroke="#FFFFFF" stroke-width="2" stroke-linecap="square"></path>
                        <circle id="Oval-4-Copy" stroke="#FFFFFF" stroke-width="2" cx="59.5" cy="214.5" r="8.5"></circle>
                        <circle id="Oval-4-Copy" stroke="#FFFFFF" stroke-width="2" cx="146.5" cy="107.5" r="8.5"></circle>
                        <path d="M219.5,153.5 L219.5,150 L219.5,149 L221.5,149 L221.5,150 L221.5,153.5 L226,153.5 L227,153.5 L227,155.5 L226,155.5 L221.5,155.5 L221.5,160 L221.5,161 L219.5,161 L219.5,160 L219.5,155.5 L216,155.5 L215,155.5 L215,153.5 L216,153.5 L219.5,153.5 Z" id="Combined-Shape-Copy-3" stroke="#FFFFFF" stroke-width="2" stroke-linecap="square"></path>
                    </g>
                    <g id="Group" transform="translate(73.000000, 126.000000)" stroke="#FCB84C">
                        <path d="M113.104651,18.6507321 L98.1860465,18.6507321 C96.2530499,18.6507321 94.6860465,17.0837288 94.6860465,15.1507321 L94.6860465,1.5 L18.372093,1.5 C18.0959506,1.5 17.872093,1.72385763 17.872093,2 L17.872093,42.6179364 L1.79516897,53.0647181 C1.71784015,53.1149664 1.65591465,53.1856221 1.61624023,53.2688722 C1.59332791,53.3169499 1.5787057,53.3658102 1.57179424,53.4153537 L1.55554046,53.5318659 L1.52132173,53.6444197 C1.50727984,53.690607 1.5,53.7393104 1.5,53.7906977 L1.5,129 C1.5,129.276142 1.72385763,129.5 2,129.5 L130,129.5 C130.276142,129.5 130.5,129.276142 130.5,129 L130.5,53.7906977 C130.5,53.5329147 130.303192,53.3174427 130.050307,53.2930877 L129.712915,53.2605939 L113.104651,43.2941455 L113.104651,18.6507321 Z" id="Combined-Shape" stroke-width="3"></path>
                        <polygon id="Combined-Shape" stroke-width="2" fill="#FCB84C" stroke-linecap="square" points="40.1993508 32.4615385 90.8006492 32.4615385 92 32.4615385 92 30 90.8006492 30 40.1993508 30 39 30 39 32.4615385"></polygon>
                        <polygon id="Line-Copy-2" stroke-width="2" fill="#FCB84C" stroke-linecap="square" points="40.2011597 62 66.0794591 62 67.2788099 62 67.2788099 59.5384615 66.0794591 59.5384615 40.2011597 59.5384615 39.001809 59.5384615 39.001809 62"></polygon>
                        <polygon id="Line-Copy" stroke-width="2" fill="#FCB84C" stroke-linecap="square" points="40.1993508 48.4615385 90.8006492 48.4615385 92 48.4615385 92 46 90.8006492 46 40.1993508 46 39 46 39 48.4615385"></polygon>
                        <path d="M4,51 L60.3371828,81.8073588 C60.9039498,82.117289 61.5855134,82.1343924 62.1671123,81.8532797 L126,51" id="Path-2" stroke-width="3"></path>
                        <path d="M96.0019852,2 C96.2198064,2 112.407468,16.5544046 112.986173,16.9909088 C113.564878,17.427413 95.784164,2 96.0019852,2 Z" id="Path-3" stroke-width="3"></path>
                    </g>
                </g>
            </g>
        </g>
    </g>
</svg>