<?xml version="1.0" encoding="UTF-8"?>
<svg width="750px" height="203px" viewBox="0 0 750 203" version="1.1" xmlns="http://www.w3.org/2000/svg" xmlns:xlink="http://www.w3.org/1999/xlink">
    <!-- Generator: Sketch 50.2 (55047) - http://www.bohemiancoding.com/sketch -->
    <title>Combined Shape + Rectangle 14 + Rectangle 14 Copy + Rectangle 14 Copy + Rectangle 15 + Rectangle 15 Copy + Group 4 + Oval 4 + Oval 4 Copy Mask</title>
    <desc>Created with Sketch.</desc>
    <defs>
        <rect id="path-1" x="0" y="0" width="750" height="203"></rect>
    </defs>
    <g id="有人么1.1" stroke="none" stroke-width="1" fill="none" fill-rule="evenodd">
        <g id="Artboard" transform="translate(-806.000000, -690.000000)">
            <g id="bar-个人顶部" transform="translate(806.000000, 560.000000)">
                <g id="Combined-Shape-+-Rectangle-14-+-Rectangle-14-Copy-+-Rectangle-14-Copy-+-Rectangle-15-+-Rectangle-15-Copy-+-Group-4-+-Oval-4-+-Oval-4-Copy-Mask" transform="translate(0.000000, 130.000000)">
                    <mask id="mask-2" fill="white">
                        <use xlink:href="#path-1"></use>
                    </mask>
                    <use id="Mask" fill="#FFD947" xlink:href="#path-1"></use>
                    <g id="Group-3" mask="url(#mask-2)">
                        <g transform="translate(303.000000, 23.000000)">
                            <path d="M66,51.2633649 L66,66 L51.2633649,66 C46.4041807,68.5545047 40.8708971,70 35,70 C15.6700338,70 0,54.3299662 0,35 C0,15.6700338 15.6700338,0 35,0 C54.3299662,0 70,15.6700338 70,35 C70,40.8708971 68.5545047,46.4041807 66,51.2633649 Z" id="Combined-Shape" fill="#FFBB47" fill-rule="evenodd" opacity="0.600000024"></path>
                            <rect id="Rectangle-14" fill="#FFBB47" fill-rule="evenodd" opacity="0.600000024" x="75" y="73" width="240" height="79" rx="18"></rect>
                            <rect id="Rectangle-14-Copy" fill="#FFBB47" fill-rule="evenodd" opacity="0.600000024" x="111" y="23" width="168" height="157" rx="18"></rect>
                            <rect id="Rectangle-14-Copy" fill="#FFD947" fill-rule="evenodd" x="122" y="33" width="147" height="137" rx="10"></rect>
                            <g id="Group-4" stroke-width="1" fill="none" fill-rule="evenodd" transform="translate(182.000000, 84.000000)">
                                <path d="M27,6 L27,6.5 C27,13.9558441 20.9558441,20 13.5,20 C6.04415588,20 9.13077564e-16,13.9558441 0,6.5 L0,6 L27,6 Z" id="Combined-Shape" fill="#FFFFFF"></path>
                                <path d="M27,6 L0,6 L0,2 C-1.3527075e-16,0.8954305 0.8954305,2.02906125e-16 2,0 L25,0 C26.1045695,-2.02906125e-16 27,0.8954305 27,2 L27,6 Z" id="Combined-Shape" fill="#FFFFFF"></path>
                            </g>
                            <ellipse id="Oval-4" fill="#FFBB47" fill-rule="evenodd" cx="145" cy="80" rx="9" ry="5"></ellipse>
                            <ellipse id="Oval-4-Copy" fill="#FFBB47" fill-rule="evenodd" cx="245" cy="80" rx="9" ry="5"></ellipse>
                            <text id="Hi！" fill="none" font-family="Helvetica-Bold, Helvetica" font-size="36" font-weight="bold">
                                <tspan x="11" y="48" fill="#FFFFFF">Hi</tspan>
                                <tspan x="47" y="48" font-family="PingFangSC-Bold, PingFang SC" fill="#FFFFFF">！</tspan>
                            </text>
                        </g>
                    </g>
                    <circle id="Oval-6" fill="#FFFFFF" mask="url(#mask-2)" cx="467" cy="89" r="6"></circle>
                    <circle id="Oval-6-Copy" fill="#FFFFFF" mask="url(#mask-2)" cx="530" cy="89" r="6"></circle>
                    <circle id="Oval-7" fill="#FFBB47" opacity="0.5" mask="url(#mask-2)" cx="750" cy="89" r="13"></circle>
                    <circle id="Oval-7-Copy" fill="#FFBB47" opacity="0.5" mask="url(#mask-2)" cx="637.5" cy="37.5" r="14.5"></circle>
                    <circle id="Oval-7-Copy-2" fill="#FFBB47" opacity="0.5" mask="url(#mask-2)" cx="46" cy="58" r="9"></circle>
                    <rect id="Rectangle-13" fill="#FFBB47" opacity="0.5" mask="url(#mask-2)" transform="translate(202.606602, 91.606602) rotate(-315.000000) translate(-202.606602, -91.606602) " x="195.106602" y="84.1066017" width="15" height="15"></rect>
                </g>
            </g>
        </g>
    </g>
</svg>
